# xmcd
#
# Track frame offsets: 
#        150
#        16156
#        33262
#        49958
#        66426
#        83842
#        102138
#        130215
#        147750
#        164759
#        180947
#        199600
#        219059
#        239140
#        260362
#        277815
#        305839
#        324791
#        340889
#
# Disc length: 4707 seconds
#
# Revision: 0
# Processed by: cddbd v1.5.2PL0 Copyright (c) Steve Scherf et al.
# Submitted via: ExactAudioCopyFreeDBPlugin 1.0
#
DISCID=0a126113
DTITLE=Diverse Interpreten - Kuschelrock 20  [CD2)
DYEAR=2006
DGENRE=Pop
TTITLE0=John Lennon - Woman
TTITLE1=David Bowie - This Is Not America
TTITLE2=Nickelback - Far Away (Edit)
TTITLE3=Ben Moody Feat. Anastacia - Everything Burns  (Ben Moody Featu
TTITLE3=ring Anastacia)
TTITLE4=Patrick Swayze Feat. Wendy - She’S Like The Wind (Remastered 2
TTITLE4=003)
TTITLE5=Depeche Mode - Precious
TTITLE6=Tears For Fears Feat. Oleta Ad - Woman In Chains (Album Versio
TTITLE6=n)
TTITLE7=Reamonn - Strong (Single Edit)
TTITLE8=Everlast - What It’S Like (Radio Edit)
TTITLE9=Tobias Regner - I Still Burn (Radio Version)
TTITLE10=INXS - Afterglow (Album Version)
TTITLE11=Train - Drops Of Jupiter (Album Version)
TTITLE12=Sarah McLachlan - Angel
TTITLE13=All Saints - Black Coffee
TTITLE14=Macy Gray - I Try (Album Version)
TTITLE15=Sade - Is It A Crime (Album Version)
TTITLE16=Usher - Burn (Album Version Radio Mix)
TTITLE17=2raumwohnung - 2 Von Millionen Von Sternen (Single Mix)
TTITLE18=Elvis Presley - Love Me Tender
EXTD=
EXTT0=
EXTT1=
EXTT2=
EXTT3=
EXTT4=
EXTT5=
EXTT6=
EXTT7=
EXTT8=
EXTT9=
EXTT10=
EXTT11=
EXTT12=
EXTT13=
EXTT14=
EXTT15=
EXTT16=
EXTT17=
EXTT18=
PLAYORDER=
